# OBJ generated by ONSHAPE BY PTC INC, 1.220 Units = meters
mtllib Part Studio 1.mtl
g Part 1
v -0.163279 0.0435463 0.001 
v -0.163279 0.0435463 0 
v -0.163279 0.0355507 0 
v -0.163279 0.0355507 0.001 
v -0.149248 0.0355507 0 
v -0.149248 0.0355507 0.001 
v -0.149248 -0.00229051 0 
v -0.149248 -0.00229051 0.001 
v -0.139667 -0.00229051 0 
v -0.139667 -0.00229051 0.001 
v -0.139667 0.0355507 0 
v -0.139667 0.0355507 0.001 
v -0.125635 0.0435463 0.001 
v -0.125635 0.0355507 0.001 
v -0.125635 0.0435463 0 
v -0.125635 0.0355507 0 
vn -1 0 0 
vn 0 -1 0 
vn 1 0 0 
vn 0 0 1 
vn 0 0 -1 
vn 0 -1 0 
vn 1 0 0 
vn 0 1 0 
usemtl 0.615686_0.811765_0.929412_0.000000_0.000000
o mesh0
f 1//1 2//1 3//1 
f 3//1 4//1 1//1 
o mesh1
f 4//2 3//2 5//2 
f 5//2 6//2 4//2 
o mesh2
f 6//1 5//1 7//1 
f 7//1 8//1 6//1 
o mesh3
f 8//2 7//2 9//2 
f 9//2 10//2 8//2 
o mesh4
f 10//3 9//3 11//3 
f 11//3 12//3 10//3 
o mesh5
f 13//4 6//4 12//4 
f 10//4 12//4 6//4 
f 6//4 8//4 10//4 
f 1//4 4//4 6//4 
f 6//4 13//4 1//4 
f 12//4 14//4 13//4 
o mesh6
f 2//5 11//5 5//5 
f 7//5 5//5 11//5 
f 11//5 9//5 7//5 
f 15//5 16//5 11//5 
f 11//5 2//5 15//5 
f 5//5 3//5 2//5 
o mesh7
f 12//6 11//6 16//6 
f 16//6 14//6 12//6 
o mesh8
f 14//7 16//7 15//7 
f 15//7 13//7 14//7 
o mesh9
f 13//8 15//8 2//8 
f 2//8 1//8 13//8 
g Part 4
v -0.0412974 0.0435463 0.001 
v -0.0412974 0.0435463 0 
v -0.0412974 0.0355507 0 
v -0.0412974 0.0355507 0.001 
v -0.0272657 0.0355507 0 
v -0.0272657 0.0355507 0.001 
v -0.0272657 -0.00229051 0 
v -0.0272657 -0.00229051 0.001 
v -0.0176848 -0.00229051 0 
v -0.0176848 -0.00229051 0.001 
v -0.0176848 0.0355507 0 
v -0.0176848 0.0355507 0.001 
v -0.00365316 0.0435463 0.001 
v -0.00365316 0.0355507 0.001 
v -0.00365316 0.0435463 0 
v -0.00365316 0.0355507 0 
vn -1 0 0 
vn 0 -1 0 
vn 1 0 0 
vn 0 0 1 
vn 0 0 -1 
vn 0 -1 0 
vn 1 0 0 
vn 0 1 0 
usemtl 0.917647_0.917647_0.917647_0.000000_0.000000
o mesh10
f 17//9 18//9 19//9 
f 19//9 20//9 17//9 
o mesh11
f 20//10 19//10 21//10 
f 21//10 22//10 20//10 
o mesh12
f 22//9 21//9 23//9 
f 23//9 24//9 22//9 
o mesh13
f 24//10 23//10 25//10 
f 25//10 26//10 24//10 
o mesh14
f 26//11 25//11 27//11 
f 27//11 28//11 26//11 
o mesh15
f 29//12 22//12 28//12 
f 26//12 28//12 22//12 
f 22//12 24//12 26//12 
f 17//12 20//12 22//12 
f 22//12 29//12 17//12 
f 28//12 30//12 29//12 
o mesh16
f 18//13 27//13 21//13 
f 23//13 21//13 27//13 
f 27//13 25//13 23//13 
f 31//13 32//13 27//13 
f 27//13 18//13 31//13 
f 21//13 19//13 18//13 
o mesh17
f 28//14 27//14 32//14 
f 32//14 30//14 28//14 
o mesh18
f 30//15 32//15 31//15 
f 31//15 29//15 30//15 
o mesh19
f 29//16 31//16 18//16 
f 18//16 17//16 29//16 
g Part 2
v -0.119412 0.0435463 0.001 
v -0.119412 0.0435463 0 
v -0.119412 -0.00229051 0 
v -0.119412 -0.00229051 0.001 
v -0.0884438 -0.00229051 0 
v -0.0884438 -0.00229051 0.001 
v -0.0884438 0.00569523 0 
v -0.0884438 0.00569523 0.001 
v -0.109723 0.00569523 0 
v -0.109723 0.00569523 0.001 
v -0.109723 0.0166448 0 
v -0.109723 0.0166448 0.001 
v -0.0901177 0.0166448 0 
v -0.0901177 0.0166448 0.001 
v -0.0901177 0.0246306 0 
v -0.0901177 0.0246306 0.001 
v -0.109723 0.0246306 0 
v -0.109723 0.0246306 0.001 
v -0.109723 0.0355507 0 
v -0.109723 0.0355507 0.001 
v -0.0885324 0.0435463 0.001 
v -0.0885324 0.0355507 0.001 
v -0.0885324 0.0435463 0 
v -0.0885324 0.0355507 0 
vn -1 0 0 
vn 0 -1 0 
vn 1 0 0 
vn 0 1 0 
vn 0 -1 0 
vn 1 0 0 
vn 0 1 0 
vn 0 0 1 
vn 0 0 -1 
vn 0 -1 0 
vn 1 0 0 
vn 0 1 0 
usemtl 0.647059_0.647059_0.647059_0.000000_0.000000
o mesh20
f 33//17 34//17 35//17 
f 35//17 36//17 33//17 
o mesh21
f 36//18 35//18 37//18 
f 37//18 38//18 36//18 
o mesh22
f 38//19 37//19 39//19 
f 39//19 40//19 38//19 
o mesh23
f 40//20 39//20 41//20 
f 41//20 42//20 40//20 
o mesh24
f 42//19 41//19 43//19 
f 43//19 44//19 42//19 
o mesh25
f 44//21 43//21 45//21 
f 45//21 46//21 44//21 
o mesh26
f 46//22 45//22 47//22 
f 47//22 48//22 46//22 
o mesh27
f 48//23 47//23 49//23 
f 49//23 50//23 48//23 
o mesh28
f 50//22 49//22 51//22 
f 51//22 52//22 50//22 
o mesh29
f 53//24 33//24 52//24 
f 33//24 44//24 50//24 
f 50//24 52//24 33//24 
f 48//24 50//24 44//24 
f 44//24 46//24 48//24 
f 36//24 42//24 44//24 
f 44//24 33//24 36//24 
f 38//24 40//24 42//24 
f 42//24 36//24 38//24 
f 52//24 54//24 53//24 
o mesh30
f 37//25 35//25 41//25 
f 35//25 49//25 43//25 
f 43//25 41//25 35//25 
f 45//25 43//25 49//25 
f 49//25 47//25 45//25 
f 34//25 51//25 49//25 
f 49//25 35//25 34//25 
f 55//25 56//25 51//25 
f 51//25 34//25 55//25 
f 41//25 39//25 37//25 
o mesh31
f 52//26 51//26 56//26 
f 56//26 54//26 52//26 
o mesh32
f 54//27 56//27 55//27 
f 55//27 53//27 54//27 
o mesh33
f 53//28 55//28 34//28 
f 34//28 33//28 53//28 
g Part 3
v -0.0560469 0.0310253 0.001 
v -0.0560469 0.0310253 0 
v -0.0559494 0.0303614 0 
v -0.0561987 0.0316451 0.001 
v -0.0561987 0.0316451 0 
v -0.0563916 0.0321935 0.001 
v -0.0563916 0.0321935 0 
v -0.0566487 0.0327374 0.001 
v -0.0566487 0.0327374 0 
v -0.0569456 0.0332228 0.001 
v -0.0569456 0.0332228 0 
v -0.0572837 0.0336637 0.001 
v -0.0572837 0.0336637 0 
v -0.0576691 0.0340717 0.001 
v -0.0576691 0.0340717 0 
v -0.0581117 0.0344546 0.001 
v -0.0581117 0.0344546 0 
v -0.0582585 0.034566 0.001 
v -0.0582585 0.034566 0 
v -0.0559494 0.0303614 0.001 
v -0.0466639 0.0303614 0 
v -0.0466639 0.0303614 0.001 
v -0.0481909 0.0364733 0.001 
v -0.0481909 0.0364733 0 
v -0.0488597 0.0375693 0 
v -0.0476441 0.0353221 0.001 
v -0.0476441 0.0353221 0 
v -0.0472216 0.0341259 0.001 
v -0.0472216 0.0341259 0 
v -0.0469143 0.0328588 0.001 
v -0.0469143 0.0328588 0 
v -0.0467236 0.0314896 0.001 
v -0.0467236 0.0314896 0 
v -0.0488597 0.0375693 0.001 
v -0.0532266 0.0416033 0.001 
v -0.0532266 0.0416033 0 
v -0.0548023 0.0424237 0 
v -0.0520012 0.0407967 0.001 
v -0.0520012 0.0407967 0 
v -0.0509439 0.0399412 0.001 
v -0.0509439 0.0399412 0 
v -0.0499411 0.0389433 0.001 
v -0.0499411 0.0389433 0 
v -0.0490829 0.0378856 0.001 
v -0.0490829 0.0378856 0 
v -0.0548023 0.0424237 0.001 
v -0.0611327 0.0440468 0.001 
v -0.0611327 0.0440468 0 
v -0.0637185 0.0441666 0 
v -0.0589434 0.0437317 0.001 
v -0.0589434 0.0437317 0 
v -0.0570676 0.0432714 0.001 
v -0.0570676 0.0432714 0 
v -0.0554339 0.0426967 0.001 
v -0.0554339 0.0426967 0 
v -0.0637185 0.0441666 0.001 
v -0.07087 0.0431109 0.001 
v -0.07087 0.0431109 0 
v -0.0726692 0.0424237 0 
v -0.0689456 0.043631 0.001 
v -0.0689456 0.043631 0 
v -0.0668095 0.0439889 0.001 
v -0.0668095 0.0439889 0 
v -0.0643907 0.0441586 0.001 
v -0.0643907 0.0441586 0 
v -0.0726692 0.0424237 0.001 
v -0.0779794 0.0386606 0.001 
v -0.0779794 0.0386606 0 
v -0.0788579 0.0375693 0 
v -0.0769869 0.0396616 0.001 
v -0.0769869 0.0396616 0 
v -0.0758699 0.0405796 0.001 
v -0.0758699 0.0405796 0 
v -0.0745972 0.0414285 0.001 
v -0.0745972 0.0414285 0 
v -0.0731254 0.0422146 0.001 
v -0.0731254 0.0422146 0 
v -0.0788579 0.0375693 0.001 
v -0.0810178 0.0317977 0.001 
v -0.0810178 0.0317977 0 
v -0.0810882 0.0302925 0 
v -0.0808314 0.0330427 0.001 
v -0.0808314 0.0330427 0 
v -0.0805069 0.0343021 0.001 
v -0.0805069 0.0343021 0 
v -0.0800764 0.0354453 0.001 
v -0.0800764 0.0354453 0 
v -0.0795441 0.0365042 0.001 
v -0.0795441 0.0365042 0 
v -0.0810882 0.0302925 0.001 
v -0.0785077 0.0229631 0.001 
v -0.0785077 0.0229631 0 
v -0.0777502 0.0222132 0 
v -0.0791644 0.0237683 0.001 
v -0.0791644 0.0237683 0 
v -0.079705 0.0245983 0.001 
v -0.079705 0.0245983 0 
v -0.0801498 0.025468 0.001 
v -0.0801498 0.025468 0 
v -0.0805104 0.026396 0.001 
v -0.0805104 0.026396 0 
v -0.0807902 0.027405 0.001 
v -0.0807902 0.027405 0 
v -0.080985 0.0285234 0.001 
v -0.080985 0.0285234 0 
v -0.0810817 0.0297884 0.001 
v -0.0810817 0.0297884 0 
v -0.0777502 0.0222132 0.001 
v -0.0712177 0.018566 0.001 
v -0.0712177 0.018566 0 
v -0.0686025 0.0178068 0 
v -0.0733607 0.0194141 0.001 
v -0.0733607 0.0194141 0 
v -0.0750734 0.0202927 0.001 
v -0.0750734 0.0202927 0 
v -0.0764749 0.0211941 0.001 
v -0.0764749 0.0211941 0 
v -0.0686025 0.0178068 0.001 
v -0.0636102 0.0165562 0 
v -0.0636102 0.0165562 0.001 
v -0.0612937 0.0159137 0.001 
v -0.0612937 0.0159137 0 
v -0.0593662 0.0152072 0 
v -0.0593662 0.0152072 0.001 
v -0.0570846 0.0137916 0.001 
v -0.0570846 0.0137916 0 
v -0.0567273 0.01342 0 
v -0.0574938 0.0141404 0.001 
v -0.0574938 0.0141404 0 
v -0.0580074 0.0145012 0.001 
v -0.0580074 0.0145012 0 
v -0.0586618 0.0148766 0.001 
v -0.0586618 0.0148766 0 
v -0.0567273 0.01342 0.001 
v -0.0558441 0.0113029 0.001 
v -0.0558441 0.0113029 0 
v -0.0558214 0.0108254 0 
v -0.0559053 0.0117204 0.001 
v -0.0559053 0.0117204 0 
v -0.0559982 0.0120943 0.001 
v -0.0559982 0.0120943 0 
v -0.0561338 0.0124696 0.001 
v -0.0561338 0.0124696 0 
v -0.0562997 0.0128094 0.001 
v -0.0562997 0.0128094 0 
v -0.0564959 0.0131232 0.001 
v -0.0564959 0.0131232 0 
v -0.0558214 0.0108254 0.001 
v -0.0565453 0.0082898 0.001 
v -0.0565453 0.0082898 0 
v -0.0568258 0.00789598 0 
v -0.0562984 0.00872541 0.001 
v -0.0562984 0.00872541 0 
v -0.0561099 0.00916103 0.001 
v -0.0561099 0.00916103 0 
v -0.0559711 0.00960445 0.001 
v -0.0559711 0.00960445 0 
v -0.0558774 0.0100653 0.001 
v -0.0558774 0.0100653 0 
v -0.0558283 0.0105543 0.001 
v -0.0558283 0.0105543 0 
v -0.0568258 0.00789598 0.001 
v -0.0588428 0.00627099 0.001 
v -0.0588428 0.00627099 0 
v -0.0596567 0.00590201 0 
v -0.0582354 0.00662469 0.001 
v -0.0582354 0.00662469 0 
v -0.0577301 0.00698931 0.001 
v -0.0577301 0.00698931 0 
v -0.0573028 0.00736641 0.001 
v -0.0573028 0.00736641 0 
v -0.0569376 0.00775877 0.001 
v -0.0569376 0.00775877 0 
v -0.0596567 0.00590201 0.001 
v -0.0623615 0.00526445 0.001 
v -0.0623615 0.00526445 0 
v -0.063945 0.00518319 0 
v -0.0612252 0.00544081 0.001 
v -0.0612252 0.00544081 0 
v -0.060278 0.00568398 0.001 
v -0.060278 0.00568398 0 
v -0.063945 0.00518319 0.001 
v -0.0674167 0.00562098 0.001 
v -0.0674167 0.00562098 0 
v -0.0684302 0.00595617 0 
v -0.0663304 0.00537878 0.001 
v -0.0663304 0.00537878 0 
v -0.0650989 0.00522641 0.001 
v -0.0650989 0.00522641 0 
v -0.0684302 0.00595617 0.001 
v -0.07118 0.00777858 0.001 
v -0.07118 0.00777858 0 
v -0.0715861 0.00826031 0 
v -0.0706855 0.00729806 0.001 
v -0.0706855 0.00729806 0 
v -0.0701385 0.00686627 0.001 
v -0.0701385 0.00686627 0 
v -0.0695261 0.00647591 0.001 
v -0.0695261 0.00647591 0 
v -0.0688301 0.00612334 0.001 
v -0.0688301 0.00612334 0 
v -0.0715861 0.00826031 0.001 
v -0.0728018 0.0111463 0.001 
v -0.0728018 0.0111463 0 
v -0.0729154 0.0120956 0 
v -0.072636 0.0104077 0.001 
v -0.072636 0.0104077 0 
v -0.0724245 0.00976664 0.001 
v -0.0724245 0.00976664 0 
v -0.0721731 0.00919887 0.001 
v -0.0721731 0.00919887 0 
v -0.0718531 0.00863953 0.001 
v -0.0718531 0.00863953 0 
v -0.0729154 0.0120956 0.001 
v -0.0822895 0.0120956 0 
v -0.0822895 0.0120956 0.001 
v -0.0805479 0.00488845 0.001 
v -0.0805479 0.00488845 0 
v -0.0798869 0.00380957 0 
v -0.081105 0.00604947 0.001 
v -0.081105 0.00604947 0 
v -0.0815664 0.00732392 0.001 
v -0.0815664 0.00732392 0 
v -0.0819293 0.00874909 0.001 
v -0.0819293 0.00874909 0 
v -0.0821804 0.0103745 0.001 
v -0.0821804 0.0103745 0 
v -0.0798869 0.00380957 0.001 
v -0.0750777 -0.00047842 0.001 
v -0.0750777 -0.00047842 0 
v -0.0734865 -0.00123691 0 
v -0.0763315 0.000284913 0.001 
v -0.0763315 0.000284913 0 
v -0.0775381 0.00120294 0.001 
v -0.0775381 0.00120294 0 
v -0.078571 0.00218157 0.001 
v -0.078571 0.00218157 0 
v -0.0794666 0.00323061 0.001 
v -0.0794666 0.00323061 0 
v -0.0734865 -0.00123691 0.001 
v -0.0671826 -0.0027713 0.001 
v -0.0671826 -0.0027713 0 
v -0.0638268 -0.0029404 0 
v -0.0696704 -0.00239047 0.001 
v -0.0696704 -0.00239047 0 
v -0.0717569 -0.00185921 0.001 
v -0.0717569 -0.00185921 0 
v -0.0638268 -0.0029404 0.001 
v -0.0559924 -0.00188386 0.001 
v -0.0559924 -0.00188386 0 
v -0.0542607 -0.00125168 0 
v -0.0579063 -0.00237703 0.001 
v -0.0579063 -0.00237703 0 
v -0.0601868 -0.00274243 0.001 
v -0.0601868 -0.00274243 0 
v -0.0629627 -0.00293009 0.001 
v -0.0629627 -0.00293009 0 
v -0.0542607 -0.00125168 0.001 
v -0.0489295 0.00252896 0.001 
v -0.0489295 0.00252896 0 
v -0.0481754 0.00351416 0 
v -0.049788 0.00161921 0.001 
v -0.049788 0.00161921 0 
v -0.0507631 0.000776041 0.001 
v -0.0507631 0.000776041 0 
v -0.0518835 -1.29285e-05 0.001 
v -0.0518835 -1.29285e-05 0 
v -0.0531892 -0.00075391 0.001 
v -0.0531892 -0.00075391 0 
v -0.0481754 0.00351416 0.001 
v -0.0461365 0.00915326 0.001 
v -0.0461365 0.00915326 0 
v -0.0460435 0.0108057 0 
v -0.0463492 0.00782079 0.001 
v -0.0463492 0.00782079 0 
v -0.0466632 0.00662269 0.001 
v -0.0466632 0.00662269 0 
v -0.0471151 0.00542009 0.001 
v -0.0471151 0.00542009 0 
v -0.0476655 0.00432658 0.001 
v -0.0476655 0.00432658 0 
v -0.0460435 0.0108057 0.001 
v -0.0466864 0.0148828 0.001 
v -0.0466864 0.0148828 0 
v -0.0470824 0.0158768 0 
v -0.0463833 0.0138214 0.001 
v -0.0463833 0.0138214 0 
v -0.046168 0.0126403 0.001 
v -0.046168 0.0126403 0 
v -0.0460546 0.0112996 0.001 
v -0.0460546 0.0112996 0 
v -0.0470824 0.0158768 0.001 
v -0.0493396 0.0191609 0 
v -0.0493396 0.0191609 0.001 
v -0.0486328 0.0183694 0.001 
v -0.0486328 0.0183694 0 
v -0.0480013 0.0175166 0.001 
v -0.0480013 0.0175166 0 
v -0.0474502 0.0166098 0.001 
v -0.049933 0.0197269 0 
v -0.049933 0.0197269 0.001 
v -0.0474502 0.0166098 0 
v -0.0525055 0.0215804 0.001 
v -0.0525055 0.0215804 0 
v -0.0542755 0.022484 0 
v -0.0511559 0.020707 0.001 
v -0.0511559 0.020707 0 
v -0.0542755 0.022484 0.001 
v -0.0570846 0.0235505 0.001 
v -0.0570846 0.0235505 0 
v -0.0597798 0.0242761 0 
v -0.0546087 0.0226301 0.001 
v -0.0546087 0.0226301 0 
v -0.0597798 0.0242761 0.001 
v -0.0638957 0.0252612 3.25261e-19 
v -0.0638957 0.0252612 0.001 
v -0.0653223 0.0256229 0 
v -0.0667218 0.0260781 0 
v -0.0667218 0.0260781 0.001 
v -0.0653223 0.0256229 0.001 
v -0.0681815 0.0267155 0.001 
v -0.0681815 0.0267155 0 
v -0.0690456 0.0272203 0 
v -0.0671984 0.0262623 0.001 
v -0.0671984 0.0262623 0 
v -0.0690456 0.0272203 0.001 
v -0.0703307 0.028382 0.001 
v -0.0703307 0.028382 0 
v -0.0706211 0.0287958 0 
v -0.0700082 0.0280118 0.001 
v -0.0700082 0.0280118 0 
v -0.0696316 0.0276581 0.001 
v -0.0696316 0.0276581 0 
v -0.0691876 0.0273163 0.001 
v -0.0691876 0.0273163 0 
v -0.0706211 0.0287958 0.001 
v -0.0711457 0.0304856 0.001 
v -0.0711457 0.0304856 0 
v -0.0711528 0.0309424 0 
v -0.0711002 0.0300853 0.001 
v -0.0711002 0.0300853 0 
v -0.0710232 0.0297265 0.001 
v -0.0710232 0.0297265 0 
v -0.0709056 0.0293653 0.001 
v -0.0709056 0.0293653 0 
v -0.0707585 0.0290376 0.001 
v -0.0707585 0.0290376 0 
v -0.0711528 0.0309424 0.001 
v -0.0705404 0.0332089 0.001 
v -0.0705404 0.0332089 0 
v -0.0702912 0.0335813 0 
v -0.0707579 0.032798 0.001 
v -0.0707579 0.032798 0 
v -0.0709223 0.0323861 0.001 
v -0.0709223 0.0323861 0 
v -0.071041 0.0319659 0.001 
v -0.071041 0.0319659 0 
v -0.0711175 0.031528 0.001 
v -0.0711175 0.031528 0 
v -0.0711514 0.0310624 0.001 
v -0.0711514 0.0310624 0 
v -0.0702912 0.0335813 0.001 
v -0.0637874 0.0360627 0.001 
v -0.0628343 0.0360332 0.001 
v -0.06535 0.0359828 0.001 
v -0.0587664 0.0349029 0.001 
v -0.0617245 0.0359133 0.001 
v -0.0677951 0.035403 0.001 
v -0.0672112 0.0356103 0.001 
v -0.0684139 0.0351211 0.001 
v -0.0608061 0.0357274 0.001 
v -0.0600287 0.0354923 0.001 
v -0.0593573 0.0352165 0.001 
v -0.0689553 0.0348102 0.001 
v -0.0663855 0.0358218 0.001 
v -0.0694021 0.0344919 0.001 
v -0.0697773 0.0341647 0.001 
v -0.0701283 0.0337883 0.001 
v -0.0637874 0.0360627 0 
v -0.06535 0.0359828 0 
v -0.0628343 0.0360332 0 
v -0.0617245 0.0359133 0 
v -0.0677951 0.035403 0 
v -0.0684139 0.0351211 0 
v -0.0672112 0.0356103 0 
v -0.0608061 0.0357274 0 
v -0.0587664 0.0349029 0 
v -0.0600287 0.0354923 0 
v -0.0689553 0.0348102 0 
v -0.0663855 0.0358218 0 
v -0.0593573 0.0352165 0 
v -0.0701283 0.0337883 0 
v -0.0694021 0.0344919 0 
v -0.0697773 0.0341647 0 
vn -0.981573 -0.191087 0 
vn -0.994856 -0.101294 0 
vn -0.958263 -0.285887 0 
vn -0.925743 -0.378153 0 
vn -0.879442 -0.476006 0 
vn -0.824103 -0.56644 0 
vn -0.761066 -0.648674 0 
vn -0.691455 -0.72242 0 
vn -0.616362 -0.787463 0 
vn -0.5928 -0.80535 0 
vn -0.994856 -0.101294 0 
vn 0 -1 0 
vn 0.879613 0.47569 0 
vn 0.825564 0.564309 0 
vn 0.924503 0.381174 0 
vn 0.958637 0.28463 0 
vn 0.982324 0.187188 0 
vn 0.995953 0.0898732 0 
vn 0.999858 0.0168245 0 
vn 0.825564 0.564309 0 
vn 0.508999 0.860767 0 
vn 0.415482 0.909601 0 
vn 0.590593 0.80697 0 
vn 0.666688 0.745336 0 
vn 0.742485 0.669863 0 
vn 0.808491 0.588509 0 
vn 0.825564 0.564309 0 
vn 0.415482 0.909601 0 
vn 0.0954656 0.995433 0 
vn 0 1 0 
vn 0.19164 0.981465 0 
vn 0.286329 0.958131 0 
vn 0.377971 0.925817 0 
vn 0.415482 0.909601 0 
vn 0 1 0 
vn -0.308892 0.951097 0 
vn -0.404653 0.91447 0 
vn -0.213687 0.976902 0 
vn -0.118334 0.992974 0 
vn -0.0238248 0.999716 0 
vn 0 1 0 
vn -0.404653 0.91447 0 
vn -0.74547 0.666539 0 
vn -0.810341 0.585959 0 
vn -0.673297 0.739372 0 
vn -0.595753 0.803168 0 
vn -0.513938 0.857828 0 
vn -0.428923 0.903341 0 
vn -0.404653 0.91447 0 
vn -0.810341 0.585959 0 
vn -0.994957 0.1003 0 
vn -0.999989 -0.00472808 0 
vn -0.980405 0.196992 0 
vn -0.953216 0.302289 0 
vn -0.915659 0.401955 0 
vn -0.868936 0.494925 0 
vn -0.810341 0.585959 0 
vn -0.999989 -0.00472808 0 
vn -0.740025 -0.67258 0 
vn -0.666059 -0.745899 0 
vn -0.80809 -0.589059 0 
vn -0.865565 -0.500797 0 
vn -0.912479 -0.409123 0 
vn -0.949038 -0.315163 0 
vn -0.975502 -0.219989 0 
vn -0.992204 -0.124626 0 
vn -0.999549 -0.0300439 0 
vn -0.999992 0.00387594 0 
vn -0.666059 -0.745899 0 
vn -0.324196 -0.94599 0 
vn -0.236309 -0.971678 0 
vn -0.413937 -0.910305 0 
vn -0.500245 -0.865884 0 
vn -0.582144 -0.813086 0 
vn -0.666059 -0.745899 0 
vn -0.236309 -0.971678 0 
vn -0.242986 -0.97003 0 
vn -0.30293 -0.953013 0 
vn -0.392026 -0.919954 0 
vn -0.236254 -0.971691 0 
vn -0.684587 -0.728932 0 
vn -0.756743 -0.653712 0 
vn -0.613136 -0.789978 0 
vn -0.537698 -0.843138 0 
vn -0.459509 -0.888173 0 
vn -0.392026 -0.919954 0 
vn -0.756743 -0.653712 0 
vn -0.995247 -0.0973831 0 
vn -1 0 0 
vn -0.981008 -0.193966 0 
vn -0.957357 -0.288907 0 
vn -0.920579 -0.390555 0 
vn -0.87413 -0.485691 0 
vn -0.81926 -0.573422 0 
vn -0.756743 -0.653712 0 
vn -1 0 0 
vn -0.842289 0.539027 0 
vn -0.785581 0.618759 0 
vn -0.895544 0.444973 0 
vn -0.937564 0.347814 0 
vn -0.968484 0.249077 0 
vn -0.988709 0.149846 0 
vn -0.998692 0.0511354 0 
vn -1 0 0 
vn -0.785581 0.618759 0 
vn -0.461544 0.887117 0 
vn -0.366196 0.930538 0 
vn -0.54559 0.838052 0 
vn -0.624721 0.780848 0 
vn -0.698047 0.716052 0 
vn -0.76466 0.644434 0 
vn -0.785581 0.618759 0 
vn -0.366196 0.930538 0 
vn -0.106885 0.994271 0 
vn 0 1 0 
vn -0.20246 0.979291 0 
vn -0.296634 0.954991 0 
vn -0.366196 0.930538 0 
vn 0 1 0 
vn 0.265541 0.9641 0 
vn 0.363004 0.931788 0 
vn 0.170946 0.98528 0 
vn 0.0766078 0.997061 0 
vn 0 1 0 
vn 0.363004 0.931788 0 
vn 0.733157 0.680059 0 
vn 0.79414 0.607734 0 
vn 0.658913 0.752219 0 
vn 0.579306 0.81511 0 
vn 0.495536 0.868588 0 
vn 0.408686 0.912675 0 
vn 0.363004 0.931788 0 
vn 0.79414 0.607734 0 
vn 0.985037 0.172344 0 
vn 0.997671 0.0682168 0 
vn 0.963602 0.267341 0 
vn 0.93292 0.360084 0 
vn 0.893246 0.449568 0 
vn 0.839806 0.542887 0 
vn 0.79414 0.607734 0 
vn 0.997671 0.0682168 0 
vn 0 1 0 
vn -0.87841 -0.477908 0 
vn -0.824502 -0.565859 0 
vn -0.922047 -0.387077 0 
vn -0.955724 -0.294263 0 
vn -0.979691 -0.200513 0 
vn -0.994278 -0.106823 0 
vn -0.99976 -0.0219071 0 
vn -0.824502 -0.565859 0 
vn -0.47827 -0.878213 0 
vn -0.383199 -0.923666 0 
vn -0.561748 -0.827308 0 
vn -0.648309 -0.761377 0 
vn -0.72565 -0.688064 0 
vn -0.79325 -0.608896 0 
vn -0.824502 -0.565859 0 
vn -0.383199 -0.923666 0 
vn -0.104709 -0.994503 0 
vn 0 -1 0 
vn -0.200425 -0.979709 0 
vn -0.294712 -0.955586 0 
vn -0.383199 -0.923666 0 
vn 0 -1 0 
vn 0.295916 -0.955214 0 
vn 0.391165 -0.920321 0 
vn 0.20498 -0.978766 0 
vn 0.114011 -0.99348 0 
vn 0.0241321 -0.999709 0 
vn 0 -1 0 
vn 0.391165 -0.920321 0 
vn 0.761621 -0.648023 0 
vn 0.824465 -0.565913 0 
vn 0.691494 -0.722382 0 
vn 0.615807 -0.787897 0 
vn 0.535647 -0.844442 0 
vn 0.452083 -0.891976 0 
vn 0.391165 -0.920321 0 
vn 0.824465 -0.565913 0 
vn 0.993923 -0.11008 0 
vn 0.999989 -0.00467285 0 
vn 0.978446 -0.206501 0 
vn 0.953573 -0.301161 0 
vn 0.915655 -0.401965 0 
vn 0.86822 -0.496179 0 
vn 0.824465 -0.565913 0 
vn 0.999989 -0.00467285 0 
vn 0.94663 0.322323 0 
vn 0.90849 0.417906 0 
vn 0.973763 0.227567 0 
vn 0.99118 0.132519 0 
vn 0.999271 0.0381838 0 
vn 0.999976 0.00689639 0 
vn 0.90849 0.417906 0 
vn 0.714686 0.699445 0 
vn 0.775572 0.631259 0 
vn 0.829977 0.557797 0 
vn 0.877446 0.479675 0 
vn 0.663519 0.748159 0 
vn 0.909123 0.416527 0 
vn 0.502416 0.864626 0 
vn 0.408131 0.912924 0 
vn 0.584331 0.811515 0 
vn 0.665856 0.74608 0 
vn 0.408131 0.912924 0 
vn 0.303469 0.952841 0 
vn 0.21829 0.975884 0 
vn 0.394808 0.918764 0 
vn 0.408131 0.912924 0 
vn 0.21829 0.975884 0 
vn 0.232669 0.972556 0 
vn 0.27731 0.960781 0 
vn 0.339933 0.94045 0 
vn 0.213485 0.976946 0 
vn 0.27731 0.960781 0 
vn 0.461032 0.887384 0 
vn 0.549014 0.835813 0 
vn 0.378164 0.925739 0 
vn 0.343431 0.939178 0 
vn 0.549014 0.835813 0 
vn 0.786428 0.617683 0 
vn 0.84851 0.529179 0 
vn 0.720257 0.693707 0 
vn 0.648314 0.761373 0 
vn 0.571667 0.820486 0 
vn 0.549014 0.835813 0 
vn 0.84851 0.529179 0 
vn 0.997861 0.0653778 0 
vn 0.999488 -0.0319836 0 
vn 0.986733 0.162351 0 
vn 0.966147 0.257991 0 
vn 0.932599 0.360915 0 
vn 0.889146 0.457623 0 
vn 0.84851 0.529179 0 
vn 0.999488 -0.0319836 0 
vn 0.857619 -0.514285 0 
vn 0.803256 -0.595634 0 
vn 0.90793 -0.419123 0 
vn 0.947009 -0.321206 0 
vn 0.975043 -0.222015 0 
vn 0.992454 -0.122618 0 
vn 0.999712 -0.0240147 0 
vn 1 0 0 
vn 0.803256 -0.595634 0 
vn 0 0 1 
vn 0 0 -1 
vn 0.456299 -0.889827 0 
vn 0.374278 -0.927316 0 
vn 0.540599 -0.84128 0 
vn 0.620017 -0.784589 0 
vn 0.693697 -0.720267 0 
vn 0.767681 -0.640833 0 
vn 0.803256 -0.595634 0 
vn 0.374278 -0.927316 0 
vn 0.107888 -0.994163 0 
vn 0 -1 0 
vn 0.202587 -0.979264 0 
vn 0.296216 -0.955121 0 
vn 0.374278 -0.927316 0 
vn 0 -1 0 
vn -0.512332 -0.858787 0 
vn -0.5928 -0.80535 0 
vn -0.425123 -0.905136 0 
vn -0.335678 -0.941977 0 
vn -0.244981 -0.969528 0 
vn -0.154027 -0.988067 0 
vn -0.0637647 -0.997965 0 
vn 0 -1 0 
vn -0.5928 -0.80535 0 
usemtl 0.231373_0.380392_0.705882_0.000000_0.000000
o mesh34
f 57//29 58//29 59//30 
f 60//31 61//31 58//29 
f 62//32 63//32 61//31 
f 64//33 65//33 63//32 
f 66//34 67//34 65//33 
f 68//35 69//35 67//34 
f 70//36 71//36 69//35 
f 72//37 73//37 71//36 
f 74//38 75//38 73//37 
f 73//37 72//37 74//38 
f 71//36 70//36 72//37 
f 69//35 68//35 70//36 
f 67//34 66//34 68//35 
f 65//33 64//33 66//34 
f 63//32 62//32 64//33 
f 61//31 60//31 62//32 
f 58//29 57//29 60//31 
f 59//30 76//39 57//29 
o mesh35
f 76//40 59//40 77//40 
f 77//40 78//40 76//40 
o mesh36
f 79//41 80//41 81//42 
f 82//43 83//43 80//41 
f 84//44 85//44 83//43 
f 86//45 87//45 85//44 
f 88//46 89//46 87//45 
f 78//47 77//47 89//46 
f 89//46 88//46 78//47 
f 87//45 86//45 88//46 
f 85//44 84//44 86//45 
f 83//43 82//43 84//44 
f 80//41 79//41 82//43 
f 81//42 90//48 79//41 
o mesh37
f 91//49 92//49 93//50 
f 94//51 95//51 92//49 
f 96//52 97//52 95//51 
f 98//53 99//53 97//52 
f 100//54 101//54 99//53 
f 90//55 81//55 101//54 
f 101//54 100//54 90//55 
f 99//53 98//53 100//54 
f 97//52 96//52 98//53 
f 95//51 94//51 96//52 
f 92//49 91//49 94//51 
f 93//50 102//56 91//49 
o mesh38
f 103//57 104//57 105//58 
f 106//59 107//59 104//57 
f 108//60 109//60 107//59 
f 110//61 111//61 109//60 
f 102//62 93//62 111//61 
f 111//61 110//61 102//62 
f 109//60 108//60 110//61 
f 107//59 106//59 108//60 
f 104//57 103//57 106//59 
f 105//58 112//63 103//57 
o mesh39
f 113//64 114//64 115//65 
f 116//66 117//66 114//64 
f 118//67 119//67 117//66 
f 120//68 121//68 119//67 
f 112//69 105//69 121//68 
f 121//68 120//68 112//69 
f 119//67 118//67 120//68 
f 117//66 116//66 118//67 
f 114//64 113//64 116//66 
f 115//65 122//70 113//64 
o mesh40
f 123//71 124//71 125//72 
f 126//73 127//73 124//71 
f 128//74 129//74 127//73 
f 130//75 131//75 129//74 
f 132//76 133//76 131//75 
f 122//77 115//77 133//76 
f 133//76 132//76 122//77 
f 131//75 130//75 132//76 
f 129//74 128//74 130//75 
f 127//73 126//73 128//74 
f 124//71 123//71 126//73 
f 125//72 134//78 123//71 
o mesh41
f 135//79 136//79 137//80 
f 138//81 139//81 136//79 
f 140//82 141//82 139//81 
f 142//83 143//83 141//82 
f 144//84 145//84 143//83 
f 134//85 125//85 145//84 
f 145//84 144//84 134//85 
f 143//83 142//83 144//84 
f 141//82 140//82 142//83 
f 139//81 138//81 140//82 
f 136//79 135//79 138//81 
f 137//80 146//86 135//79 
o mesh42
f 147//87 148//87 149//88 
f 150//89 151//89 148//87 
f 152//90 153//90 151//89 
f 154//91 155//91 153//90 
f 156//92 157//92 155//91 
f 158//93 159//93 157//92 
f 160//94 161//94 159//93 
f 162//95 163//95 161//94 
f 146//96 137//96 163//95 
f 163//95 162//95 146//96 
f 161//94 160//94 162//95 
f 159//93 158//93 160//94 
f 157//92 156//92 158//93 
f 155//91 154//91 156//92 
f 153//90 152//90 154//91 
f 151//89 150//89 152//90 
f 148//87 147//87 150//89 
f 149//88 164//97 147//87 
o mesh43
f 165//98 166//98 167//99 
f 168//100 169//100 166//98 
f 170//101 171//101 169//100 
f 172//102 173//102 171//101 
f 164//103 149//103 173//102 
f 173//102 172//102 164//103 
f 171//101 170//101 172//102 
f 169//100 168//100 170//101 
f 166//98 165//98 168//100 
f 167//99 174//104 165//98 
o mesh44
f 174//105 167//105 175//105 
f 175//105 176//105 174//105 
o mesh45
f 177//106 178//106 179//107 
f 176//108 175//108 178//106 
f 178//106 177//106 176//108 
f 179//107 180//107 177//106 
o mesh46
f 181//109 182//109 183//110 
f 184//111 185//111 182//109 
f 186//112 187//112 185//111 
f 188//113 189//113 187//112 
f 180//114 179//114 189//113 
f 189//113 188//113 180//114 
f 187//112 186//112 188//113 
f 185//111 184//111 186//112 
f 182//109 181//109 184//111 
f 183//110 190//115 181//109 
o mesh47
f 191//116 192//116 193//117 
f 194//118 195//118 192//116 
f 196//119 197//119 195//118 
f 198//120 199//120 197//119 
f 200//121 201//121 199//120 
f 202//122 203//122 201//121 
f 190//123 183//123 203//122 
f 203//122 202//122 190//123 
f 201//121 200//121 202//122 
f 199//120 198//120 200//121 
f 197//119 196//119 198//120 
f 195//118 194//118 196//119 
f 192//116 191//116 194//118 
f 193//117 204//124 191//116 
o mesh48
f 205//125 206//125 207//126 
f 208//127 209//127 206//125 
f 210//128 211//128 209//127 
f 212//129 213//129 211//128 
f 214//130 215//130 213//129 
f 216//131 217//131 215//130 
f 204//132 193//132 217//131 
f 217//131 216//131 204//132 
f 215//130 214//130 216//131 
f 213//129 212//129 214//130 
f 211//128 210//128 212//129 
f 209//127 208//127 210//128 
f 206//125 205//125 208//127 
f 207//126 218//133 205//125 
o mesh49
f 219//134 220//134 221//135 
f 222//136 223//136 220//134 
f 224//137 225//137 223//136 
f 226//138 227//138 225//137 
f 228//139 229//139 227//138 
f 218//140 207//140 229//139 
f 229//139 228//139 218//140 
f 227//138 226//138 228//139 
f 225//137 224//137 226//138 
f 223//136 222//136 224//137 
f 220//134 219//134 222//136 
f 221//135 230//141 219//134 
o mesh50
f 231//142 232//142 233//143 
f 234//144 235//144 232//142 
f 236//145 237//145 235//144 
f 230//146 221//146 237//145 
f 237//145 236//145 230//146 
f 235//144 234//144 236//145 
f 232//142 231//142 234//144 
f 233//143 238//147 231//142 
o mesh51
f 239//148 240//148 241//149 
f 242//150 243//150 240//148 
f 244//151 245//151 243//150 
f 238//152 233//152 245//151 
f 245//151 244//151 238//152 
f 243//150 242//150 244//151 
f 240//148 239//148 242//150 
f 241//149 246//153 239//148 
o mesh52
f 247//154 248//154 249//155 
f 250//156 251//156 248//154 
f 252//157 253//157 251//156 
f 254//158 255//158 253//157 
f 256//159 257//159 255//158 
f 246//160 241//160 257//159 
f 257//159 256//159 246//160 
f 255//158 254//158 256//159 
f 253//157 252//157 254//158 
f 251//156 250//156 252//157 
f 248//154 247//154 250//156 
f 249//155 258//161 247//154 
o mesh53
f 259//162 260//162 261//163 
f 262//164 263//164 260//162 
f 264//165 265//165 263//164 
f 266//166 267//166 265//165 
f 268//167 269//167 267//166 
f 258//168 249//168 269//167 
f 269//167 268//167 258//168 
f 267//166 266//166 268//167 
f 265//165 264//165 266//166 
f 263//164 262//164 264//165 
f 260//162 259//162 262//164 
f 261//163 270//169 259//162 
o mesh54
f 270//170 261//170 271//170 
f 271//170 272//170 270//170 
o mesh55
f 273//171 274//171 275//172 
f 276//173 277//173 274//171 
f 278//174 279//174 277//173 
f 280//175 281//175 279//174 
f 282//176 283//176 281//175 
f 272//177 271//177 283//176 
f 283//176 282//176 272//177 
f 281//175 280//175 282//176 
f 279//174 278//174 280//175 
f 277//173 276//173 278//174 
f 274//171 273//171 276//173 
f 275//172 284//178 273//171 
o mesh56
f 285//179 286//179 287//180 
f 288//181 289//181 286//179 
f 290//182 291//182 289//181 
f 292//183 293//183 291//182 
f 294//184 295//184 293//183 
f 284//185 275//185 295//184 
f 295//184 294//184 284//185 
f 293//183 292//183 294//184 
f 291//182 290//182 292//183 
f 289//181 288//181 290//182 
f 286//179 285//179 288//181 
f 287//180 296//186 285//179 
o mesh57
f 297//187 298//187 299//188 
f 300//189 301//189 298//187 
f 302//190 303//190 301//189 
f 296//191 287//191 303//190 
f 303//190 302//190 296//191 
f 301//189 300//189 302//190 
f 298//187 297//187 300//189 
f 299//188 304//192 297//187 
o mesh58
f 305//193 306//193 307//194 
f 308//195 309//195 306//193 
f 310//196 311//196 309//195 
f 312//197 313//197 311//196 
f 304//198 299//198 313//197 
f 313//197 312//197 304//198 
f 311//196 310//196 312//197 
f 309//195 308//195 310//196 
f 306//193 305//193 308//195 
f 307//194 314//199 305//193 
o mesh59
f 315//200 316//200 317//201 
f 318//202 319//202 316//200 
f 320//203 321//203 319//202 
f 322//204 323//204 321//203 
f 324//205 325//205 323//204 
f 314//206 307//206 325//205 
f 325//205 324//205 314//206 
f 323//204 322//204 324//205 
f 321//203 320//203 322//204 
f 319//202 318//202 320//203 
f 316//200 315//200 318//202 
f 317//201 326//207 315//200 
o mesh60
f 327//208 328//208 329//209 
f 330//210 331//210 328//208 
f 332//211 333//211 331//210 
f 334//212 335//212 333//211 
f 336//213 337//213 335//212 
f 326//214 317//214 337//213 
f 337//213 336//213 326//214 
f 335//212 334//212 336//213 
f 333//211 332//211 334//212 
f 331//210 330//210 332//211 
f 328//208 327//208 330//210 
f 329//209 338//215 327//208 
o mesh61
f 339//216 340//216 341//217 
f 342//218 343//218 340//216 
f 344//219 345//219 343//218 
f 346//220 347//220 345//219 
f 338//221 329//221 347//220 
f 347//220 346//220 338//221 
f 345//219 344//219 346//220 
f 343//218 342//218 344//219 
f 340//216 339//216 342//218 
f 341//217 348//222 339//216 
o mesh62
f 349//223 350//223 351//224 
f 352//224 351//224 353//225 
f 354//225 353//225 355//226 
f 356//227 357//227 350//223 
f 358//226 355//226 348//228 
f 348//228 341//228 358//226 
f 350//223 349//223 356//227 
f 355//226 358//226 354//225 
f 353//225 354//225 352//224 
f 351//224 352//224 349//223 
o mesh63
f 359//229 360//229 361//230 
f 362//231 363//231 360//229 
f 357//232 356//232 363//231 
f 363//231 362//231 357//232 
f 360//229 359//229 362//231 
f 361//230 364//233 359//229 
o mesh64
f 365//234 366//234 367//235 
f 368//236 369//236 366//234 
f 364//237 361//237 369//236 
f 369//236 368//236 364//237 
f 366//234 365//234 368//236 
f 367//235 370//238 365//234 
o mesh65
f 367//239 371//239 372//239 
f 372//239 370//239 367//239 
o mesh66
f 373//240 374//241 375//241 
f 371//242 373//240 376//243 
f 376//243 372//242 371//242 
f 375//241 376//243 373//240 
o mesh67
f 377//244 378//244 379//245 
f 380//246 381//246 378//244 
f 375//247 374//247 381//246 
f 381//246 380//246 375//247 
f 378//244 377//244 380//246 
f 379//245 382//248 377//244 
o mesh68
f 383//249 384//249 385//250 
f 386//251 387//251 384//249 
f 388//252 389//252 387//251 
f 390//253 391//253 389//252 
f 382//254 379//254 391//253 
f 391//253 390//253 382//254 
f 389//252 388//252 390//253 
f 387//251 386//251 388//252 
f 384//249 383//249 386//251 
f 385//250 392//255 383//249 
o mesh69
f 393//256 394//256 395//257 
f 396//258 397//258 394//256 
f 398//259 399//259 397//258 
f 400//260 401//260 399//259 
f 402//261 403//261 401//260 
f 392//262 385//262 403//261 
f 403//261 402//261 392//262 
f 401//260 400//260 402//261 
f 399//259 398//259 400//260 
f 397//258 396//258 398//259 
f 394//256 393//256 396//258 
f 395//257 404//263 393//256 
o mesh70
f 405//264 406//264 407//265 
f 408//266 409//266 406//264 
f 410//267 411//267 409//266 
f 412//268 413//268 411//267 
f 414//269 415//269 413//268 
f 416//270 417//270 415//269 
f 404//271 395//271 417//270 
f 417//270 416//270 404//271 
f 415//269 414//269 416//270 
f 413//268 412//268 414//269 
f 411//267 410//267 412//268 
f 409//266 408//266 410//267 
f 406//264 405//264 408//266 
f 407//265 418//272 405//264 
o mesh71
f 165//273 174//273 375//273 
f 174//273 176//273 372//273 
f 174//273 376//273 375//273 
f 176//273 370//273 372//273 
f 186//273 364//273 368//273 
f 375//273 380//273 165//273 
f 372//273 376//273 174//273 
f 112//273 419//273 420//273 
f 120//273 118//273 421//273 
f 186//273 359//273 364//273 
f 368//273 365//273 180//273 
f 365//273 370//273 177//273 
f 176//273 177//273 370//273 
f 420//273 103//273 112//273 
f 419//273 112//273 120//273 
f 296//273 302//273 256//273 
f 304//273 238//273 244//273 
f 312//273 310//273 231//273 
f 346//273 344//273 191//273 
f 180//273 188//273 368//273 
f 380//273 377//273 165//273 
f 91//273 102//273 422//273 
f 106//273 103//273 423//273 
f 421//273 419//273 120//273 
f 113//273 424//273 425//273 
f 113//273 122//273 426//273 
f 302//273 246//273 256//273 
f 300//273 239//273 246//273 
f 244//273 297//273 304//273 
f 238//273 304//273 312//273 
f 308//273 236//273 234//273 
f 308//273 305//273 230//273 
f 222//273 219//273 314//273 
f 224//273 222//273 324//273 
f 318//273 315//273 218//273 
f 315//273 326//273 205//273 
f 338//273 204//273 216//273 
f 204//273 338//273 346//273 
f 168//273 382//273 390//273 
f 177//273 180//273 365//273 
f 94//273 91//273 72//273 
f 422//273 74//273 91//273 
f 106//273 427//273 428//273 
f 420//273 423//273 103//273 
f 426//273 424//273 113//273 
f 135//273 146//273 404//273 
f 146//273 162//273 393//273 
f 294//273 292//273 258//273 
f 285//273 296//273 254//273 
f 246//273 302//273 300//273 
f 300//273 297//273 242//273 
f 231//273 238//273 312//273 
f 230//273 236//273 308//273 
f 305//273 314//273 219//273 
f 324//273 322//273 224//273 
f 226//273 224//273 322//273 
f 228//273 226//273 320//273 
f 205//273 218//273 315//273 
f 191//273 204//273 346//273 
f 390//273 170//273 168//273 
f 168//273 165//273 377//273 
f 362//273 359//273 184//273 
f 368//273 188//273 186//273 
f 74//273 72//273 91//273 
f 422//273 102//273 110//273 
f 108//273 428//273 429//273 
f 423//273 427//273 106//273 
f 425//273 116//273 113//273 
f 430//273 426//273 122//273 
f 135//273 416//273 414//273 
f 393//273 404//273 146//273 
f 268//273 284//273 294//273 
f 292//273 290//273 247//273 
f 256//273 254//273 296//273 
f 244//273 242//273 297//273 
f 219//273 230//273 305//273 
f 322//273 320//273 226//273 
f 218//273 228//273 318//273 
f 216//273 327//273 338//273 
f 344//273 342//273 194//273 
f 377//273 382//273 168//273 
f 186//273 184//273 359//273 
f 110//273 429//273 422//273 
f 428//273 108//273 106//273 
f 118//273 116//273 431//273 
f 122//273 132//273 430//273 
f 404//273 416//273 135//273 
f 162//273 160//273 396//273 
f 280//273 278//273 262//273 
f 278//273 276//273 264//273 
f 284//273 268//273 266//273 
f 247//273 258//273 292//273 
f 288//273 285//273 252//273 
f 242//273 239//273 300//273 
f 234//273 310//273 308//273 
f 320//273 318//273 228//273 
f 330//273 214//273 212//273 
f 194//273 191//273 344//273 
f 342//273 339//273 196//273 
f 172//273 170//273 388//273 
f 184//273 181//273 362//273 
f 98//273 96//273 68//273 
f 96//273 94//273 70//273 
f 429//273 110//273 108//273 
f 425//273 431//273 116//273 
f 130//273 432//273 430//273 
f 126//273 123//273 418//273 
f 123//273 134//273 405//273 
f 396//273 393//273 162//273 
f 158//273 398//273 396//273 
f 282//273 259//273 270//273 
f 264//273 262//273 278//273 
f 276//273 273//273 266//273 
f 258//273 268//273 294//273 
f 290//273 288//273 250//273 
f 254//273 252//273 285//273 
f 314//273 324//273 222//273 
f 212//273 332//273 330//273 
f 196//273 194//273 342//273 
f 350//273 357//273 190//273 
f 357//273 362//273 181//273 
f 390//273 388//273 170//273 
f 66//273 100//273 98//273 
f 72//273 70//273 94//273 
f 430//273 132//273 130//273 
f 128//273 433//273 432//273 
f 434//273 433//273 128//273 
f 405//273 418//273 123//273 
f 138//273 414//273 412//273 
f 396//273 160//273 158//273 
f 270//273 272//273 282//273 
f 266//273 264//273 276//273 
f 250//273 247//273 290//273 
f 234//273 231//273 310//273 
f 332//273 212//273 210//273 
f 216//273 214//273 327//273 
f 154//273 152//273 402//273 
f 150//273 392//273 402//273 
f 392//273 147//273 164//273 
f 200//273 353//273 351//273 
f 202//273 351//273 350//273 
f 164//273 172//273 386//273 
f 388//273 386//273 172//273 
f 70//273 68//273 96//273 
f 432//273 130//273 128//273 
f 418//273 434//273 126//273 
f 408//273 405//273 134//273 
f 140//273 412//273 410//273 
f 414//273 138//273 135//273 
f 156//273 154//273 400//273 
f 262//273 259//273 280//273 
f 252//273 250//273 288//273 
f 330//273 327//273 214//273 
f 348//273 198//273 196//273 
f 402//273 152//273 150//273 
f 392//273 150//273 147//273 
f 190//273 202//273 350//273 
f 181//273 190//273 357//273 
f 88//273 86//273 57//273 
f 431//273 421//273 118//273 
f 134//273 144//273 408//273 
f 412//273 140//273 138//273 
f 398//273 158//273 156//273 
f 266//273 273//273 284//273 
f 326//273 336//273 208//273 
f 334//273 210//273 208//273 
f 196//273 339//273 348//273 
f 355//273 353//273 200//273 
f 164//273 383//273 392//273 
f 386//273 383//273 164//273 
f 76//273 78//273 88//273 
f 84//273 60//273 57//273 
f 64//273 90//273 100//273 
f 128//273 126//273 434//273 
f 410//273 408//273 144//273 
f 400//273 398//273 156//273 
f 208//273 205//273 326//273 
f 210//273 334//273 332//273 
f 198//273 348//273 355//273 
f 351//273 202//273 200//273 
f 57//273 86//273 84//273 
f 82//273 62//273 60//273 
f 79//273 90//273 64//273 
f 68//273 66//273 98//273 
f 410//273 142//273 140//273 
f 208//273 336//273 334//273 
f 402//273 400//273 154//273 
f 60//273 84//273 82//273 
f 62//273 82//273 79//273 
f 144//273 142//273 410//273 
f 200//273 198//273 355//273 
f 64//273 62//273 79//273 
f 282//273 280//273 259//273 
f 100//273 66//273 64//273 
f 57//273 76//273 88//273 
o mesh72
f 167//274 373//274 371//274 
f 166//274 381//274 374//274 
f 371//274 175//274 167//274 
f 374//274 167//274 166//274 
f 367//274 178//274 175//274 
f 166//274 378//274 381//274 
f 187//274 189//274 369//274 
f 374//274 373//274 167//274 
f 366//274 179//274 178//274 
f 369//274 189//274 179//274 
f 369//274 361//274 187//274 
f 121//274 435//274 436//274 
f 105//274 104//274 437//274 
f 178//274 367//274 366//274 
f 361//274 360//274 187//274 
f 347//274 193//274 192//274 
f 313//274 233//274 232//274 
f 299//274 298//274 245//274 
f 287//274 255//274 257//274 
f 436//274 119//274 121//274 
f 104//274 438//274 437//274 
f 179//274 366//274 369//274 
f 169//274 171//274 391//274 
f 192//274 345//274 347//274 
f 329//274 328//274 217//274 
f 316//274 207//274 206//274 
f 319//274 229//274 207//274 
f 225//274 323//274 325//274 
f 223//274 325//274 307//274 
f 309//274 237//274 221//274 
f 309//274 311//274 235//274 
f 232//274 311//274 313//274 
f 298//274 243//274 245//274 
f 301//274 303//274 241//274 
f 257//274 303//274 287//274 
f 114//274 439//274 440//274 
f 114//274 117//274 441//274 
f 437//274 435//274 105//274 
f 107//274 442//274 438//274 
f 92//274 75//274 443//274 
f 360//274 185//274 187//274 
f 363//274 182//274 185//274 
f 169//274 379//274 378//274 
f 171//274 389//274 391//274 
f 217//274 193//274 329//274 
f 207//274 316//274 319//274 
f 229//274 319//274 321//274 
f 227//274 321//274 323//274 
f 307//274 220//274 223//274 
f 306//274 221//274 220//274 
f 235//274 237//274 309//274 
f 245//274 233//274 299//274 
f 301//274 240//274 243//274 
f 257//274 241//274 303//274 
f 286//274 253//274 255//274 
f 295//274 269//274 249//274 
f 137//274 395//274 394//274 
f 136//274 417//274 395//274 
f 441//274 439//274 114//274 
f 438//274 104//274 107//274 
f 107//274 109//274 444//274 
f 92//274 73//274 75//274 
f 95//274 71//274 73//274 
f 185//274 360//274 363//274 
f 391//274 379//274 169//274 
f 345//274 192//274 195//274 
f 328//274 215//274 217//274 
f 321//274 227//274 229//274 
f 325//274 223//274 225//274 
f 221//274 306//274 309//274 
f 243//274 298//274 301//274 
f 255//274 287//274 286//274 
f 293//274 249//274 248//274 
f 249//274 293//274 295//274 
f 395//274 137//274 136//274 
f 136//274 139//274 415//274 
f 445//274 133//274 115//274 
f 117//274 446//274 441//274 
f 444//274 442//274 107//274 
f 109//274 111//274 447//274 
f 443//274 447//274 111//274 
f 73//274 92//274 95//274 
f 378//274 166//274 169//274 
f 173//274 387//274 389//274 
f 343//274 195//274 197//274 
f 347//274 329//274 193//274 
f 331//274 333//274 213//274 
f 323//274 225//274 227//274 
f 311//274 232//274 235//274 
f 241//274 240//274 301//274 
f 289//274 251//274 253//274 
f 295//274 275//274 269//274 
f 275//274 274//274 267//274 
f 279//274 263//274 265//274 
f 281//274 260//274 263//274 
f 163//274 394//274 397//274 
f 415//274 417//274 136//274 
f 440//274 115//274 114//274 
f 119//274 436//274 446//274 
f 447//274 444//274 109//274 
f 443//274 93//274 92//274 
f 389//274 171//274 173//274 
f 356//274 183//274 182//274 
f 349//274 203//274 183//274 
f 195//274 343//274 345//274 
f 215//274 328//274 331//274 
f 220//274 307//274 306//274 
f 253//274 286//274 289//274 
f 291//274 248//274 251//274 
f 267//274 269//274 275//274 
f 277//274 265//274 267//274 
f 263//274 279//274 281//274 
f 283//274 271//274 261//274 
f 159//274 161//274 397//274 
f 394//274 163//274 137//274 
f 124//274 407//274 406//274 
f 127//274 448//274 407//274 
f 131//274 133//274 445//274 
f 446//274 117//274 119//274 
f 111//274 93//274 443//274 
f 97//274 69//274 71//274 
f 99//274 67//274 69//274 
f 182//274 363//274 356//274 
f 149//274 384//274 387//274 
f 183//274 356//274 349//274 
f 201//274 203//274 352//274 
f 385//274 384//274 149//274 
f 151//274 153//274 403//274 
f 155//274 401//274 403//274 
f 213//274 215//274 331//274 
f 333//274 335//274 211//274 
f 313//274 299//274 233//274 
f 248//274 291//274 293//274 
f 265//274 277//274 279//274 
f 260//274 281//274 283//274 
f 397//274 161//274 163//274 
f 139//274 141//274 413//274 
f 407//274 124//274 127//274 
f 448//274 127//274 129//274 
f 129//274 131//274 449//274 
f 115//274 440//274 445//274 
f 71//274 95//274 97//274 
f 69//274 97//274 99//274 
f 387//274 173//274 149//274 
f 352//274 354//274 201//274 
f 149//274 148//274 385//274 
f 403//274 153//274 155//274 
f 341//274 340//274 197//274 
f 211//274 213//274 333//274 
f 251//274 289//274 291//274 
f 261//274 260//274 283//274 
f 157//274 399//274 401//274 
f 413//274 415//274 139//274 
f 141//274 143//274 411//274 
f 409//274 145//274 125//274 
f 129//274 450//274 448//274 
f 445//274 449//274 131//274 
f 99//274 101//274 67//274 
f 349//274 352//274 203//274 
f 403//274 385//274 151//274 
f 358//274 199//274 201//274 
f 197//274 340//274 343//274 
f 335//274 337//274 209//274 
f 317//274 206//274 209//274 
f 267//274 274//274 277//274 
f 401//274 155//274 157//274 
f 411//274 413//274 141//274 
f 406//274 125//274 124//274 
f 121//274 105//274 435//274 
f 89//274 59//274 58//274 
f 148//274 151//274 385//274 
f 201//274 354//274 358//274 
f 209//274 211//274 335//274 
f 206//274 317//274 316//274 
f 397//274 399//274 159//274 
f 411//274 143//274 145//274 
f 449//274 450//274 129//274 
f 65//274 67//274 101//274 
f 85//274 87//274 58//274 
f 58//274 87//274 89//274 
f 358//274 341//274 199//274 
f 209//274 337//274 317//274 
f 145//274 409//274 411//274 
f 101//274 81//274 65//274 
f 80//274 63//274 65//274 
f 83//274 85//274 61//274 
f 89//274 77//274 59//274 
f 197//274 199//274 341//274 
f 125//274 406//274 409//274 
f 65//274 81//274 80//274 
f 58//274 61//274 85//274 
f 157//274 159//274 399//274 
f 61//274 63//274 83//274 
f 80//274 83//274 63//274 
f 371//274 367//274 175//274 
o mesh73
f 426//275 440//275 439//276 
f 430//277 445//277 440//275 
f 432//278 449//278 445//277 
f 433//279 450//279 449//278 
f 434//280 448//280 450//279 
f 418//281 407//281 448//280 
f 448//280 434//280 418//281 
f 450//279 433//279 434//280 
f 449//278 432//278 433//279 
f 445//277 430//277 432//278 
f 440//275 426//275 430//277 
f 439//276 424//282 426//275 
o mesh74
f 421//283 436//283 435//284 
f 431//285 446//285 436//283 
f 425//286 441//286 446//285 
f 424//287 439//287 441//286 
f 441//286 425//286 424//287 
f 446//285 431//285 425//286 
f 436//283 421//283 431//285 
f 435//284 419//288 421//283 
o mesh75
f 422//289 443//289 75//290 
f 429//291 447//291 443//289 
f 428//292 444//292 447//291 
f 427//293 442//293 444//292 
f 423//294 438//294 442//293 
f 420//295 437//295 438//294 
f 419//296 435//296 437//295 
f 437//295 420//295 419//296 
f 438//294 423//294 420//295 
f 442//293 427//293 423//294 
f 444//292 428//292 427//293 
f 447//291 429//291 428//292 
f 443//289 422//289 429//291 
f 75//290 74//297 422//289 
