{"asset":{"generator":"glTF-Transform v4.2.1","version":"2.0"},"accessors":[{"type":"SCALAR","componentType":5123,"count":11376,"bufferView":0,"byteOffset":0},{"name":"mesh0_norm_accessor","type":"VEC3","componentType":5126,"count":4006,"bufferView":1,"byteOffset":0},{"name":"mesh0_coord_accessor","type":"VEC3","componentType":5126,"count":4006,"max":[1.0550733804702759,0.07363180816173553,0.02539999969303608],"min":[-0.18668508529663086,-0.0597502775490284,-6.938893903907228e-18],"bufferView":1,"byteOffset":12},{"type":"VEC2","componentType":5126,"count":4006,"bufferView":1,"byteOffset":24}],"bufferViews":[{"buffer":0,"byteOffset":0,"byteLength":22752,"target":34963},{"buffer":0,"byteOffset":22752,"byteLength":128192,"byteStride":32,"target":34962}],"samplers":[{"magFilter":9728,"minFilter":9728,"wrapS":10497,"wrapT":10497}],"textures":[{"sampler":0,"extensions":{"EXT_texture_webp":{"source":0}}}],"images":[{"name":"PaletteBaseColor","mimeType":"image/webp","uri":"PaletteBaseColor.webp"}],"buffers":[{"name":"Total_buffer","uri":"PartStudio1.bin","byteLength":150944}],"materials":[{"name":"PaletteMaterial001","doubleSided":true,"pbrMetallicRoughness":{"metallicFactor":0,"baseColorTexture":{"index":0}}}],"meshes":[{"name":"mesh0_mesh","primitives":[{"attributes":{"NORMAL":1,"POSITION":2,"TEXCOORD_0":3},"mode":4,"material":0,"indices":0}]}],"nodes":[{"name":"Part 8","translation":[-0.4341941475868225,-0.006940765306353569,-0.012699999846518036],"mesh":0}],"scenes":[{"name":"Root","nodes":[0]}],"scene":0,"extensionsUsed":["EXT_texture_webp"],"extensionsRequired":["EXT_texture_webp"]}